<svg width="10" height="12" viewBox="0 0 10 12" fill="none" xmlns="http://www.w3.org/2000/svg">
<path d="M4.99951 11.5C5.00345 11.5 5.00837 11.5 5.01231 11.5C5.11472 11.4974 5.21615 11.4678 5.28607 11.4112L9.41757 8.8919C9.54558 8.78889 9.52195 7.63759 9.36439 7.55389C9.20683 7.4702 7.97541 7.48565 7.8474 7.58866L4.99951 9.87936L2.1526 7.58866C2.02459 7.48565 0.79317 7.4702 0.635611 7.55389C0.478051 7.63759 0.454417 8.78889 0.582435 8.8919L4.71393 11.4112C4.78385 11.4672 4.88429 11.4974 4.98671 11.5C4.98966 11.5 4.99557 11.5 4.99951 11.5Z" fill="#AA796C"/>
<path d="M5 6C4.448 6 4 6.448 4 7C4 7.552 4.448 8 5 8C5.552 8 6 7.552 6 7C6 6.448 5.55333 6 5 6Z" fill="#AA796C"/>
<path d="M5 3C4.448 3 4 3.448 4 4C4 4.552 4.448 5 5 5C5.552 5 6 4.552 6 4C6 3.448 5.55333 3 5 3Z" fill="#AA796C"/>
<path d="M5 0C4.448 0 4 0.448 4 1C4 1.552 4.448 2 5 2C5.552 2 6 1.552 6 1C6 0.448 5.55333 0 5 0Z" fill="#AA796C"/>
</svg>
